<svg xmlns="http://www.w3.org/2000/svg" xmlns:xlink="http://www.w3.org/1999/xlink" width="696" height="160" class="svgbob">
  <defs>
    <linearGradient id="grad1">
      <stop stop-color="#001313" offset="0"/>
      <stop stop-color="#001313" stop-opacity="0" offset="1"/>
    </linearGradient>
    <linearGradient id="grad2">
      <stop stop-color="#008066" stop-opacity="0" offset="0"/>
      <stop stop-color="#0fc" offset="1"/>
    </linearGradient>
    <linearGradient id="grad3">
      <stop stop-color="#020202" offset="0"/>
      <stop stop-color="#020202" stop-opacity="0" offset="1"/>
    </linearGradient>
    <linearGradient id="topGrad" x1="0" y1="0" x2="0" y2="1">
      <stop offset="0" stop-color="#0cf"/>
      <stop offset="1" stop-color="#0a8"/>
    </linearGradient>
    <linearGradient id="bottomGrad" x1="0" y1="0" x2="0" y2="1">
      <stop offset="0" stop-color="#0a8"/>
      <stop offset="1" stop-color="#0cf"/>
    </linearGradient>
    <linearGradient id="leftGrad" x1="0" y1="0" x2="1" y2="0">
      <stop offset="0" stop-color="#0cf"/>
      <stop offset="1" stop-color="#0a8"/>
    </linearGradient>
    <linearGradient id="rightGrad" x1="1" y1="0" x2="0" y2="0">
      <stop offset="0" stop-color="#0cf"/>
      <stop offset="1" stop-color="#0a8"/>
    </linearGradient>
    <linearGradient id="diagGrad" x1="0" y1="0" x2="1" y2="1">
      <stop offset="0" stop-color="#0cf"/>
      <stop offset="0.5" stop-color="#0a8"/>
      <stop offset="1" stop-color="#0cf"/>
    </linearGradient>
    <linearGradient id="glowGrad" x1="0.5" y1="0" x2="0.5" y2="1">
      <stop offset="0" stop-color="#0fc"/>
      <stop offset="0.4" stop-color="#0cf"/>
      <stop offset="1" stop-color="#0a8"/>
    </linearGradient>
    <linearGradient id="shimmer" x1="0" y1="0" x2="1" y2="1">
      <stop offset="0" stop-color="#0fc" stop-opacity="0.3"/>
      <stop offset="0.5" stop-color="#0cf" stop-opacity="0.6"/>
      <stop offset="1" stop-color="#0a8" stop-opacity="0.3"/>
    </linearGradient>
    <marker id="arrow" viewBox="-2 -2 8 8" refX="4" refY="2" markerWidth="7" markerHeight="7" orient="auto-start-reverse">
      <polygon points="0,0 0,4 4,2 0,0"/>
    </marker>
    <marker id="diamond" viewBox="-2 -2 8 8" refX="4" refY="2" markerWidth="7" markerHeight="7" orient="auto-start-reverse">
      <polygon points="0,2 2,0 4,2 2,4 0,2"/>
    </marker>
    <marker id="circle" viewBox="0 0 8 8" refX="4" refY="4" markerWidth="7" markerHeight="7" orient="auto-start-reverse">
      <circle cx="4" cy="4" r="2" class="filled"/>
    </marker>
    <marker id="open_circle" viewBox="0 0 8 8" refX="4" refY="4" markerWidth="7" markerHeight="7" orient="auto-start-reverse">
      <circle cx="4" cy="4" r="2" class="bg_filled"/>
    </marker>
    <marker id="big_open_circle" viewBox="0 0 8 8" refX="4" refY="4" markerWidth="7" markerHeight="7" orient="auto-start-reverse">
      <circle cx="4" cy="4" r="3" class="bg_filled"/>
    </marker>
  </defs>
  <style>.svgbob line, .svgbob path, .svgbob circle, .svgbob rect, .svgbob polygon {
  stroke: none;
  stroke-width: 0;
  stroke-opacity: 1;
  fill-opacity: 1;
  stroke-linecap: round;
  stroke-linejoin: miter;
}

.svgbob text {
  white-space: pre;
  fill: #0cf;
  font-family: Iosevka Fixed, monospace;
  font-size: 14px;
}

.svgbob .broken {
  stroke-dasharray: 8;
}

.svgbob .filled {
  fill: #0a8;
}

.svgbob .bg_filled {
  fill: transparent;
  stroke-width: 1;
}

.svgbob .nofill {
  fill: transparent;
}

.svgbob .end_marked_arrow {
  marker-end: url(#arrow);
}

.svgbob .start_marked_arrow {
  marker-start: url(#arrow);
}

.svgbob .end_marked_diamond {
  marker-end: url(#diamond);
}

.svgbob .start_marked_diamond {
  marker-start: url(#diamond);
}

.svgbob .end_marked_circle {
  marker-end: url(#circle);
}

.svgbob .start_marked_circle {
  marker-start: url(#circle);
}

.svgbob .end_marked_open_circle {
  marker-end: url(#open_circle);
}

.svgbob .start_marked_open_circle {
  marker-start: url(#open_circle);
}

.svgbob .end_marked_big_open_circle {
  marker-end: url(#big_open_circle);
}

.svgbob .start_marked_big_open_circle {
  marker-start: url(#big_open_circle);
}
  </style>

  <!-- Letter O -->
  <rect x="8" y="24" width="8" height="8" fill="url(#glowGrad)" rx="0"/>
  <rect x="16" y="16" width="8" height="16" fill="url(#topGrad)" rx="0"/>
  <rect x="24" y="16" width="8" height="16" fill="url(#topGrad)" rx="0"/>
  <rect x="32" y="16" width="8" height="16" fill="url(#topGrad)" rx="0"/>
  <rect x="40" y="16" width="8" height="16" fill="url(#topGrad)" rx="0"/>
  <rect x="48" y="16" width="8" height="16" fill="url(#topGrad)" rx="0"/>
  <rect x="56" y="16" width="8" height="16" fill="url(#topGrad)" rx="0"/>
  <rect x="64" y="24" width="8" height="8" fill="url(#glowGrad)" rx="0"/>
  <rect x="0" y="32" width="8" height="16" fill="url(#leftGrad)" rx="0"/>
  <rect x="8" y="32" width="8" height="16" fill="#0cf" rx="0"/>
  <rect x="16" y="32" width="8" height="16" fill="#0cf" rx="0"/>
  <rect x="56" y="32" width="8" height="16" fill="#0cf" rx="0"/>
  <rect x="64" y="32" width="8" height="16" fill="#0cf" rx="0"/>
  <rect x="72" y="32" width="8" height="16" fill="url(#rightGrad)" rx="0"/>
  <rect x="0" y="48" width="8" height="16" fill="url(#leftGrad)" rx="0"/>
  <rect x="8" y="48" width="8" height="16" fill="#0a8" rx="0"/>
  <rect x="16" y="48" width="8" height="16" fill="#0a8" rx="0"/>
  <rect x="56" y="48" width="8" height="16" fill="#0a8" rx="0"/>
  <rect x="64" y="48" width="8" height="16" fill="#0a8" rx="0"/>
  <rect x="72" y="48" width="8" height="16" fill="url(#rightGrad)" rx="0"/>
  <rect x="0" y="64" width="8" height="16" fill="url(#leftGrad)" rx="0"/>
  <rect x="8" y="64" width="8" height="16" fill="#0cf" rx="0"/>
  <rect x="16" y="64" width="8" height="16" fill="#0cf" rx="0"/>
  <rect x="56" y="64" width="8" height="16" fill="#0cf" rx="0"/>
  <rect x="64" y="64" width="8" height="16" fill="#0cf" rx="0"/>
  <rect x="72" y="64" width="8" height="16" fill="url(#rightGrad)" rx="0"/>
  <rect x="0" y="80" width="8" height="16" fill="url(#leftGrad)" rx="0"/>
  <rect x="8" y="80" width="8" height="16" fill="#0a8" rx="0"/>
  <rect x="16" y="80" width="8" height="16" fill="#0a8" rx="0"/>
  <rect x="56" y="80" width="8" height="16" fill="#0a8" rx="0"/>
  <rect x="64" y="80" width="8" height="16" fill="#0a8" rx="0"/>
  <rect x="72" y="80" width="8" height="16" fill="url(#rightGrad)" rx="0"/>
  <rect x="0" y="96" width="8" height="16" fill="url(#leftGrad)" rx="0"/>
  <rect x="8" y="96" width="8" height="16" fill="#0cf" rx="0"/>
  <rect x="16" y="96" width="8" height="16" fill="#0cf" rx="0"/>
  <rect x="56" y="96" width="8" height="16" fill="#0cf" rx="0"/>
  <rect x="64" y="96" width="8" height="16" fill="#0cf" rx="0"/>
  <rect x="72" y="96" width="8" height="16" fill="url(#rightGrad)" rx="0"/>
  <rect x="0" y="112" width="8" height="16" fill="url(#leftGrad)" rx="0"/>
  <rect x="8" y="112" width="8" height="16" fill="#0a8" rx="0"/>
  <rect x="16" y="112" width="8" height="16" fill="#0a8" rx="0"/>
  <rect x="56" y="112" width="8" height="16" fill="#0a8" rx="0"/>
  <rect x="64" y="112" width="8" height="16" fill="#0a8" rx="0"/>
  <rect x="72" y="112" width="8" height="16" fill="url(#rightGrad)" rx="0"/>
  <text x="10" y="140" fill="#0cf">▀</text>
  <rect x="16" y="128" width="8" height="16" fill="url(#bottomGrad)" rx="0"/>
  <rect x="24" y="128" width="8" height="16" fill="url(#bottomGrad)" rx="0"/>
  <rect x="32" y="128" width="8" height="16" fill="url(#bottomGrad)" rx="0"/>
  <rect x="40" y="128" width="8" height="16" fill="url(#bottomGrad)" rx="0"/>
  <rect x="48" y="128" width="8" height="16" fill="url(#bottomGrad)" rx="0"/>
  <rect x="56" y="128" width="8" height="16" fill="url(#bottomGrad)" rx="0"/>
  <text x="66" y="140" fill="#0cf">▀</text>

  <!-- Letter M -->
  <rect x="104" y="24" width="8" height="8" fill="url(#glowGrad)" rx="0"/>
  <rect x="112" y="24" width="8" height="8" fill="url(#glowGrad)" rx="0"/>
  <rect x="120" y="24" width="8" height="8" fill="url(#glowGrad)" rx="0"/>
  <rect x="128" y="24" width="8" height="8" fill="url(#glowGrad)" rx="0"/>
  <rect x="136" y="16" width="8" height="16" fill="url(#topGrad)" rx="0"/>
  <rect x="144" y="16" width="8" height="16" fill="url(#topGrad)" rx="0"/>
  <rect x="152" y="16" width="8" height="16" fill="url(#topGrad)" rx="0"/>
  <rect x="160" y="24" width="8" height="8" fill="url(#glowGrad)" rx="0"/>
  <rect x="168" y="24" width="8" height="8" fill="url(#glowGrad)" rx="0"/>
  <rect x="176" y="24" width="8" height="8" fill="url(#glowGrad)" rx="0"/>
  <rect x="184" y="24" width="8" height="8" fill="url(#glowGrad)" rx="0"/>
  <rect x="88" y="40" width="8" height="8" fill="url(#glowGrad)" rx="0"/>
  <rect x="96" y="32" width="8" height="16" fill="#0cf" rx="0"/>
  <rect x="104" y="32" width="8" height="16" fill="#0cf" rx="0"/>
  <rect x="136" y="32" width="8" height="16" fill="#0cf" rx="0"/>
  <rect x="144" y="32" width="8" height="16" fill="#0cf" rx="0"/>
  <rect x="152" y="32" width="8" height="16" fill="#0cf" rx="0"/>
  <rect x="184" y="32" width="8" height="16" fill="#0cf" rx="0"/>
  <rect x="192" y="32" width="8" height="16" fill="#0cf" rx="0"/>
  <rect x="200" y="40" width="8" height="8" fill="url(#glowGrad)" rx="0"/>
  <rect x="88" y="48" width="8" height="16" fill="#0a8" rx="0"/>
  <rect x="96" y="48" width="8" height="16" fill="#0a8" rx="0"/>
  <rect x="104" y="48" width="8" height="16" fill="#0a8" rx="0"/>
  <rect x="136" y="48" width="8" height="16" fill="#0a8" rx="0"/>
  <rect x="144" y="48" width="8" height="16" fill="#0a8" rx="0"/>
  <rect x="152" y="48" width="8" height="16" fill="#0a8" rx="0"/>
  <rect x="184" y="48" width="8" height="16" fill="#0a8" rx="0"/>
  <rect x="192" y="48" width="8" height="16" fill="#0a8" rx="0"/>
  <rect x="200" y="48" width="8" height="16" fill="#0a8" rx="0"/>
  <rect x="88" y="64" width="8" height="16" fill="#0cf" rx="0"/>
  <rect x="96" y="64" width="8" height="16" fill="#0cf" rx="0"/>
  <rect x="104" y="64" width="8" height="16" fill="#0cf" rx="0"/>
  <rect x="136" y="64" width="8" height="16" fill="#0cf" rx="0"/>
  <rect x="144" y="64" width="8" height="16" fill="#0cf" rx="0"/>
  <rect x="152" y="64" width="8" height="16" fill="#0cf" rx="0"/>
  <rect x="184" y="64" width="8" height="16" fill="#0cf" rx="0"/>
  <rect x="192" y="64" width="8" height="16" fill="#0cf" rx="0"/>
  <rect x="200" y="64" width="8" height="16" fill="#0cf" rx="0"/>
  <rect x="88" y="80" width="8" height="16" fill="#0a8" rx="0"/>
  <rect x="96" y="80" width="8" height="16" fill="#0a8" rx="0"/>
  <rect x="104" y="80" width="8" height="16" fill="#0a8" rx="0"/>
  <rect x="136" y="80" width="8" height="16" fill="#0a8" rx="0"/>
  <rect x="144" y="80" width="8" height="16" fill="#0a8" rx="0"/>
  <rect x="152" y="80" width="8" height="16" fill="#0a8" rx="0"/>
  <rect x="184" y="80" width="8" height="16" fill="#0a8" rx="0"/>
  <rect x="192" y="80" width="8" height="16" fill="#0a8" rx="0"/>
  <rect x="200" y="80" width="8" height="16" fill="#0a8" rx="0"/>
  <rect x="88" y="96" width="8" height="16" fill="#0cf" rx="0"/>
  <rect x="96" y="96" width="8" height="16" fill="#0cf" rx="0"/>
  <rect x="104" y="96" width="8" height="16" fill="#0cf" rx="0"/>
  <rect x="136" y="96" width="8" height="16" fill="#0cf" rx="0"/>
  <rect x="144" y="96" width="8" height="16" fill="#0cf" rx="0"/>
  <rect x="152" y="96" width="8" height="16" fill="#0cf" rx="0"/>
  <rect x="184" y="96" width="8" height="16" fill="#0cf" rx="0"/>
  <rect x="192" y="96" width="8" height="16" fill="#0cf" rx="0"/>
  <rect x="200" y="96" width="8" height="16" fill="#0cf" rx="0"/>
  <rect x="88" y="112" width="8" height="16" fill="#0a8" rx="0"/>
  <rect x="96" y="112" width="8" height="16" fill="#0a8" rx="0"/>
  <rect x="104" y="112" width="8" height="16" fill="#0a8" rx="0"/>
  <rect x="136" y="112" width="8" height="16" fill="#0a8" rx="0"/>
  <rect x="144" y="112" width="8" height="16" fill="#0a8" rx="0"/>
  <rect x="152" y="112" width="8" height="16" fill="#0a8" rx="0"/>
  <rect x="184" y="112" width="8" height="16" fill="#0a8" rx="0"/>
  <rect x="192" y="112" width="8" height="16" fill="#0a8" rx="0"/>
  <rect x="200" y="112" width="8" height="16" fill="#0a8" rx="0"/>
  <text x="98" y="140" fill="#0cf">▀</text>
  <rect x="104" y="128" width="8" height="16" fill="url(#bottomGrad)" rx="0"/>
  <rect x="136" y="128" width="8" height="16" fill="url(#bottomGrad)" rx="0"/>
  <rect x="144" y="128" width="8" height="16" fill="url(#bottomGrad)" rx="0"/>
  <rect x="152" y="128" width="8" height="16" fill="url(#bottomGrad)" rx="0"/>
  <rect x="184" y="128" width="8" height="16" fill="url(#bottomGrad)" rx="0"/>
  <text x="194" y="140" fill="#0cf">▀</text>

  <!-- Letter C -->
  <rect x="224" y="24" width="8" height="8" fill="url(#glowGrad)" rx="0"/>
  <rect x="232" y="16" width="8" height="16" fill="url(#topGrad)" rx="0"/>
  <rect x="240" y="16" width="8" height="16" fill="url(#topGrad)" rx="0"/>
  <rect x="248" y="16" width="8" height="16" fill="url(#topGrad)" rx="0"/>
  <rect x="256" y="16" width="8" height="16" fill="url(#topGrad)" rx="0"/>
  <rect x="264" y="16" width="8" height="16" fill="url(#topGrad)" rx="0"/>
  <rect x="272" y="16" width="8" height="16" fill="url(#topGrad)" rx="0"/>
  <rect x="280" y="16" width="8" height="16" fill="url(#topGrad)" rx="0"/>
  <rect x="288" y="16" width="8" height="16" fill="url(#topGrad)" rx="0"/>
  <rect x="216" y="32" width="8" height="16" fill="#0cf" rx="0"/>
  <rect x="224" y="32" width="8" height="16" fill="#0cf" rx="0"/>
  <rect x="232" y="32" width="8" height="16" fill="#0cf" rx="0"/>
  <rect x="272" y="32" width="8" height="16" fill="#0cf" rx="0"/>
  <rect x="280" y="32" width="8" height="16" fill="#0cf" rx="0"/>
  <rect x="288" y="32" width="8" height="16" fill="#0cf" rx="0"/>
  <rect x="216" y="48" width="8" height="16" fill="#0a8" rx="0"/>
  <rect x="224" y="48" width="8" height="16" fill="#0a8" rx="0"/>
  <rect x="232" y="48" width="8" height="16" fill="#0a8" rx="0"/>
  <rect x="272" y="48" width="8" height="16" fill="#0a8" rx="0"/>
  <text x="282" y="60" fill="#0a8">▀</text>
  <rect x="216" y="64" width="8" height="16" fill="#0cf" rx="0"/>
  <rect x="224" y="64" width="8" height="16" fill="#0cf" rx="0"/>
  <rect x="232" y="64" width="8" height="16" fill="#0cf" rx="0"/>
  <rect x="216" y="80" width="8" height="16" fill="#0a8" rx="0"/>
  <rect x="224" y="80" width="8" height="16" fill="#0a8" rx="0"/>
  <rect x="232" y="80" width="8" height="16" fill="#0a8" rx="0"/>
  <rect x="216" y="96" width="8" height="16" fill="#0cf" rx="0"/>
  <rect x="224" y="96" width="8" height="16" fill="#0cf" rx="0"/>
  <rect x="232" y="96" width="8" height="16" fill="#0cf" rx="0"/>
  <rect x="272" y="96" width="8" height="16" fill="#0cf" rx="0"/>
  <rect x="280" y="104" width="8" height="8" fill="url(#glowGrad)" rx="0"/>
  <rect x="216" y="112" width="8" height="16" fill="#0a8" rx="0"/>
  <rect x="224" y="112" width="8" height="16" fill="#0a8" rx="0"/>
  <rect x="232" y="112" width="8" height="16" fill="#0a8" rx="0"/>
  <rect x="272" y="112" width="8" height="16" fill="#0a8" rx="0"/>
  <rect x="280" y="112" width="8" height="16" fill="#0a8" rx="0"/>
  <rect x="288" y="112" width="8" height="16" fill="#0a8" rx="0"/>
  <rect x="216" y="128" width="8" height="16" fill="url(#bottomGrad)" rx="0"/>
  <rect x="224" y="128" width="8" height="16" fill="url(#bottomGrad)" rx="0"/>
  <rect x="232" y="128" width="8" height="16" fill="url(#bottomGrad)" rx="0"/>
  <rect x="240" y="128" width="8" height="16" fill="url(#bottomGrad)" rx="0"/>
  <rect x="248" y="128" width="8" height="16" fill="url(#bottomGrad)" rx="0"/>
  <rect x="256" y="128" width="8" height="16" fill="url(#bottomGrad)" rx="0"/>
  <rect x="264" y="128" width="8" height="16" fill="url(#bottomGrad)" rx="0"/>
  <rect x="272" y="128" width="8" height="16" fill="url(#bottomGrad)" rx="0"/>
  <text x="282" y="140" fill="#0cf">▀</text>

  <!-- Letter A -->
  <rect x="328" y="24" width="8" height="8" fill="url(#glowGrad)" rx="0"/>
  <rect x="336" y="16" width="8" height="16" fill="url(#topGrad)" rx="0"/>
  <rect x="344" y="16" width="8" height="16" fill="url(#topGrad)" rx="0"/>
  <rect x="352" y="16" width="8" height="16" fill="url(#topGrad)" rx="0"/>
  <rect x="360" y="16" width="8" height="16" fill="url(#topGrad)" rx="0"/>
  <rect x="368" y="16" width="8" height="16" fill="url(#topGrad)" rx="0"/>
  <rect x="376" y="16" width="8" height="16" fill="url(#topGrad)" rx="0"/>
  <rect x="384" y="16" width="8" height="16" fill="url(#topGrad)" rx="0"/>
  <rect x="392" y="16" width="8" height="16" fill="url(#topGrad)" rx="0"/>
  <rect x="320" y="32" width="8" height="16" fill="#0cf" rx="0"/>
  <rect x="328" y="32" width="8" height="16" fill="#0cf" rx="0"/>
  <rect x="336" y="32" width="8" height="16" fill="#0cf" rx="0"/>
  <rect x="376" y="32" width="8" height="16" fill="#0cf" rx="0"/>
  <rect x="384" y="32" width="8" height="16" fill="#0cf" rx="0"/>
  <rect x="392" y="32" width="8" height="16" fill="#0cf" rx="0"/>
  <rect x="320" y="48" width="8" height="16" fill="#0a8" rx="0"/>
  <rect x="328" y="48" width="8" height="16" fill="#0a8" rx="0"/>
  <rect x="336" y="48" width="8" height="16" fill="#0a8" rx="0"/>
  <rect x="376" y="48" width="8" height="16" fill="#0a8" rx="0"/>
  <rect x="384" y="48" width="8" height="16" fill="#0a8" rx="0"/>
  <rect x="392" y="48" width="8" height="16" fill="#0a8" rx="0"/>
  <rect x="320" y="64" width="8" height="16" fill="#0cf" rx="0"/>
  <rect x="328" y="64" width="8" height="16" fill="#0cf" rx="0"/>
  <rect x="336" y="64" width="8" height="16" fill="#0cf" rx="0"/>
  <rect x="376" y="64" width="8" height="16" fill="#0cf" rx="0"/>
  <rect x="384" y="64" width="8" height="16" fill="#0cf" rx="0"/>
  <rect x="392" y="64" width="8" height="16" fill="#0cf" rx="0"/>
  <text x="306" y="92" fill="#0fc">▀</text>
  <rect x="312" y="80" width="8" height="16" fill="url(#diagGrad)" rx="0"/>
  <rect x="320" y="80" width="8" height="16" fill="#0a8" rx="0"/>
  <rect x="328" y="80" width="8" height="16" fill="#0a8" rx="0"/>
  <rect x="336" y="80" width="8" height="16" fill="#0a8" rx="0"/>
  <rect x="344" y="80" width="8" height="16" fill="#0a8" rx="0"/>
  <rect x="352" y="80" width="8" height="16" fill="#0a8" rx="0"/>
  <rect x="360" y="80" width="8" height="16" fill="#0a8" rx="0"/>
  <rect x="368" y="80" width="8" height="16" fill="#0a8" rx="0"/>
  <rect x="376" y="80" width="8" height="16" fill="#0a8" rx="0"/>
  <rect x="384" y="80" width="8" height="16" fill="#0a8" rx="0"/>
  <rect x="392" y="80" width="8" height="16" fill="#0a8" rx="0"/>
  <rect x="320" y="96" width="8" height="16" fill="#0cf" rx="0"/>
  <rect x="328" y="96" width="8" height="16" fill="#0cf" rx="0"/>
  <rect x="336" y="96" width="8" height="16" fill="#0cf" rx="0"/>
  <rect x="376" y="96" width="8" height="16" fill="#0cf" rx="0"/>
  <rect x="384" y="96" width="8" height="16" fill="#0cf" rx="0"/>
  <rect x="392" y="96" width="8" height="16" fill="#0cf" rx="0"/>
  <rect x="320" y="112" width="8" height="16" fill="#0a8" rx="0"/>
  <rect x="328" y="112" width="8" height="16" fill="#0a8" rx="0"/>
  <rect x="336" y="112" width="8" height="16" fill="#0a8" rx="0"/>
  <rect x="376" y="112" width="8" height="16" fill="#0a8" rx="0"/>
  <rect x="384" y="112" width="8" height="16" fill="#0a8" rx="0"/>
  <rect x="392" y="112" width="8" height="16" fill="#0a8" rx="0"/>
  <rect x="320" y="128" width="8" height="16" fill="url(#bottomGrad)" rx="0"/>
  <rect x="328" y="128" width="8" height="16" fill="url(#bottomGrad)" rx="0"/>
  <rect x="336" y="128" width="8" height="16" fill="url(#bottomGrad)" rx="0"/>
  <rect x="376" y="128" width="8" height="16" fill="url(#bottomGrad)" rx="0"/>
  <text x="386" y="140" fill="#0cf">▀</text>

  <!-- Letter C (second) -->
  <rect x="416" y="24" width="8" height="8" fill="url(#glowGrad)" rx="0"/>
  <rect x="424" y="16" width="8" height="16" fill="url(#topGrad)" rx="0"/>
  <rect x="432" y="16" width="8" height="16" fill="url(#topGrad)" rx="0"/>
  <rect x="440" y="16" width="8" height="16" fill="url(#topGrad)" rx="0"/>
  <rect x="448" y="16" width="8" height="16" fill="url(#topGrad)" rx="0"/>
  <rect x="456" y="16" width="8" height="16" fill="url(#topGrad)" rx="0"/>
  <rect x="464" y="16" width="8" height="16" fill="url(#topGrad)" rx="0"/>
  <rect x="472" y="16" width="8" height="16" fill="url(#topGrad)" rx="0"/>
  <rect x="480" y="16" width="8" height="16" fill="url(#topGrad)" rx="0"/>
  <rect x="408" y="32" width="8" height="16" fill="#0cf" rx="0"/>
  <rect x="416" y="32" width="8" height="16" fill="#0cf" rx="0"/>
  <rect x="424" y="32" width="8" height="16" fill="#0cf" rx="0"/>
  <rect x="464" y="32" width="8" height="16" fill="#0cf" rx="0"/>
  <rect x="472" y="32" width="8" height="16" fill="#0cf" rx="0"/>
  <rect x="480" y="32" width="8" height="16" fill="#0cf" rx="0"/>
  <rect x="408" y="48" width="8" height="16" fill="#0a8" rx="0"/>
  <rect x="416" y="48" width="8" height="16" fill="#0a8" rx="0"/>
  <rect x="424" y="48" width="8" height="16" fill="#0a8" rx="0"/>
  <rect x="464" y="48" width="8" height="16" fill="#0a8" rx="0"/>
  <text x="474" y="60" fill="#0a8">▀</text>
  <rect x="408" y="64" width="8" height="16" fill="#0cf" rx="0"/>
  <rect x="416" y="64" width="8" height="16" fill="#0cf" rx="0"/>
  <rect x="424" y="64" width="8" height="16" fill="#0cf" rx="0"/>
  <rect x="408" y="80" width="8" height="16" fill="#0a8" rx="0"/>
  <rect x="416" y="80" width="8" height="16" fill="#0a8" rx="0"/>
  <rect x="424" y="80" width="8" height="16" fill="#0a8" rx="0"/>
  <rect x="408" y="96" width="8" height="16" fill="#0cf" rx="0"/>
  <rect x="416" y="96" width="8" height="16" fill="#0cf" rx="0"/>
  <rect x="424" y="96" width="8" height="16" fill="#0cf" rx="0"/>
  <rect x="464" y="96" width="8" height="16" fill="#0cf" rx="0"/>
  <rect x="472" y="104" width="8" height="8" fill="url(#glowGrad)" rx="0"/>
  <rect x="408" y="112" width="8" height="16" fill="#0a8" rx="0"/>
  <rect x="416" y="112" width="8" height="16" fill="#0a8" rx="0"/>
  <rect x="424" y="112" width="8" height="16" fill="#0a8" rx="0"/>
  <rect x="464" y="112" width="8" height="16" fill="#0a8" rx="0"/>
  <rect x="472" y="112" width="8" height="16" fill="#0a8" rx="0"/>
  <rect x="480" y="112" width="8" height="16" fill="#0a8" rx="0"/>
  <rect x="408" y="128" width="8" height="16" fill="url(#bottomGrad)" rx="0"/>
  <rect x="416" y="128" width="8" height="16" fill="url(#bottomGrad)" rx="0"/>
  <rect x="424" y="128" width="8" height="16" fill="url(#bottomGrad)" rx="0"/>
  <rect x="432" y="128" width="8" height="16" fill="url(#bottomGrad)" rx="0"/>
  <rect x="440" y="128" width="8" height="16" fill="url(#bottomGrad)" rx="0"/>
  <rect x="448" y="128" width="8" height="16" fill="url(#bottomGrad)" rx="0"/>
  <rect x="456" y="128" width="8" height="16" fill="url(#bottomGrad)" rx="0"/>
  <rect x="464" y="128" width="8" height="16" fill="url(#bottomGrad)" rx="0"/>
  <text x="474" y="140" fill="#0cf">▀</text>

  <!-- Letter H -->
  <!-- Top caps -->
  <rect x="520" y="24" width="8" height="8" fill="url(#glowGrad)" rx="0"/>
  <rect x="528" y="16" width="8" height="16" fill="url(#topGrad)" rx="0"/>
  <rect x="568" y="16" width="8" height="16" fill="url(#topGrad)" rx="0"/>
  <rect x="576" y="24" width="8" height="8" fill="url(#glowGrad)" rx="0"/>
  <!-- Row y=32 -->
  <rect x="512" y="32" width="8" height="16" fill="#0cf" rx="0"/>
  <rect x="520" y="32" width="8" height="16" fill="#0cf" rx="0"/>
  <rect x="528" y="32" width="8" height="16" fill="#0cf" rx="0"/>
  <rect x="568" y="32" width="8" height="16" fill="#0cf" rx="0"/>
  <rect x="576" y="32" width="8" height="16" fill="#0cf" rx="0"/>
  <rect x="584" y="32" width="8" height="16" fill="#0cf" rx="0"/>
  <!-- Row y=48 -->
  <rect x="512" y="48" width="8" height="16" fill="#0a8" rx="0"/>
  <rect x="520" y="48" width="8" height="16" fill="#0a8" rx="0"/>
  <rect x="528" y="48" width="8" height="16" fill="#0a8" rx="0"/>
  <rect x="568" y="48" width="8" height="16" fill="#0a8" rx="0"/>
  <rect x="576" y="48" width="8" height="16" fill="#0a8" rx="0"/>
  <rect x="584" y="48" width="8" height="16" fill="#0a8" rx="0"/>
  <!-- Row y=64 - crossbar area with left/right pillars + crossbar connections -->
  <rect x="504" y="72" width="8" height="8" fill="url(#glowGrad)" rx="0"/>
  <rect x="512" y="64" width="8" height="16" fill="#0cf" rx="0"/>
  <rect x="520" y="64" width="8" height="16" fill="#0cf" rx="0"/>
  <rect x="528" y="64" width="8" height="16" fill="#0cf" rx="0"/>
  <rect x="536" y="72" width="8" height="8" fill="url(#diagGrad)" rx="0"/>
  <rect x="544" y="72" width="8" height="8" fill="url(#diagGrad)" rx="0"/>
  <rect x="552" y="72" width="8" height="8" fill="url(#diagGrad)" rx="0"/>
  <rect x="560" y="72" width="8" height="8" fill="url(#diagGrad)" rx="0"/>
  <rect x="568" y="64" width="8" height="16" fill="#0cf" rx="0"/>
  <rect x="576" y="64" width="8" height="16" fill="#0cf" rx="0"/>
  <rect x="584" y="64" width="8" height="16" fill="#0cf" rx="0"/>
  <rect x="592" y="72" width="8" height="8" fill="url(#diagGrad)" rx="0"/>
  <rect x="600" y="72" width="8" height="8" fill="url(#diagGrad)" rx="0"/>
  <!-- Row y=80 -->
  <rect x="512" y="80" width="8" height="16" fill="#0a8" rx="0"/>
  <rect x="520" y="80" width="8" height="16" fill="#0a8" rx="0"/>
  <rect x="528" y="80" width="8" height="16" fill="#0a8" rx="0"/>
  <rect x="568" y="80" width="8" height="16" fill="#0a8" rx="0"/>
  <rect x="576" y="80" width="8" height="16" fill="#0a8" rx="0"/>
  <rect x="584" y="80" width="8" height="16" fill="#0a8" rx="0"/>
  <text x="594" y="92" fill="#0a8">▀</text>
  <!-- Row y=96 -->
  <rect x="512" y="96" width="8" height="16" fill="#0cf" rx="0"/>
  <rect x="520" y="96" width="8" height="16" fill="#0cf" rx="0"/>
  <rect x="528" y="96" width="8" height="16" fill="#0cf" rx="0"/>
  <rect x="568" y="96" width="8" height="16" fill="#0cf" rx="0"/>
  <rect x="576" y="96" width="8" height="16" fill="#0cf" rx="0"/>
  <rect x="584" y="96" width="8" height="16" fill="#0cf" rx="0"/>
  <!-- Row y=112 -->
  <rect x="512" y="112" width="8" height="16" fill="#0a8" rx="0"/>
  <rect x="520" y="112" width="8" height="16" fill="#0a8" rx="0"/>
  <rect x="528" y="112" width="8" height="16" fill="#0a8" rx="0"/>
  <rect x="568" y="112" width="8" height="16" fill="#0a8" rx="0"/>
  <rect x="576" y="112" width="8" height="16" fill="#0a8" rx="0"/>
  <rect x="584" y="112" width="8" height="16" fill="#0a8" rx="0"/>
  <!-- Bottom caps -->
  <rect x="512" y="128" width="8" height="16" fill="url(#bottomGrad)" rx="0"/>
  <rect x="520" y="128" width="8" height="16" fill="url(#bottomGrad)" rx="0"/>
  <rect x="528" y="128" width="8" height="16" fill="url(#bottomGrad)" rx="0"/>
  <rect x="568" y="128" width="8" height="16" fill="url(#bottomGrad)" rx="0"/>
  <text x="578" y="140" fill="#0cf">▀</text>

  <!-- Letter Y -->
  <rect x="616" y="24" width="8" height="8" fill="url(#glowGrad)" rx="0"/>
  <rect x="624" y="16" width="8" height="16" fill="url(#topGrad)" rx="0"/>
  <rect x="632" y="16" width="8" height="16" fill="url(#topGrad)" rx="0"/>
  <rect x="664" y="24" width="8" height="8" fill="url(#glowGrad)" rx="0"/>
  <rect x="616" y="32" width="8" height="16" fill="#0cf" rx="0"/>
  <rect x="624" y="32" width="8" height="16" fill="#0cf" rx="0"/>
  <rect x="632" y="32" width="8" height="16" fill="#0cf" rx="0"/>
  <rect x="664" y="32" width="8" height="16" fill="#0cf" rx="0"/>
  <rect x="672" y="32" width="8" height="16" fill="#0cf" rx="0"/>
  <rect x="680" y="40" width="8" height="8" fill="url(#glowGrad)" rx="0"/>
  <rect x="616" y="48" width="8" height="16" fill="#0a8" rx="0"/>
  <rect x="624" y="48" width="8" height="16" fill="#0a8" rx="0"/>
  <rect x="632" y="48" width="8" height="16" fill="#0a8" rx="0"/>
  <rect x="640" y="56" width="8" height="8" fill="url(#diagGrad)" rx="0"/>
  <rect x="648" y="56" width="8" height="8" fill="url(#diagGrad)" rx="0"/>
  <rect x="656" y="56" width="8" height="8" fill="url(#diagGrad)" rx="0"/>
  <rect x="664" y="48" width="8" height="16" fill="#0a8" rx="0"/>
  <rect x="672" y="48" width="8" height="16" fill="#0a8" rx="0"/>
  <rect x="680" y="48" width="8" height="16" fill="#0a8" rx="0"/>
  <rect x="664" y="64" width="8" height="16" fill="#0cf" rx="0"/>
  <rect x="672" y="64" width="8" height="16" fill="#0cf" rx="0"/>
  <rect x="680" y="64" width="8" height="16" fill="#0cf" rx="0"/>
  <rect x="616" y="88" width="8" height="8" fill="url(#glowGrad)" rx="0"/>
  <rect x="624" y="80" width="8" height="16" fill="#0a8" rx="0"/>
  <rect x="632" y="80" width="8" height="16" fill="#0a8" rx="0"/>
  <rect x="664" y="80" width="8" height="16" fill="#0a8" rx="0"/>
  <rect x="672" y="80" width="8" height="16" fill="#0a8" rx="0"/>
  <rect x="680" y="80" width="8" height="16" fill="#0a8" rx="0"/>
  <rect x="616" y="96" width="8" height="16" fill="#0cf" rx="0"/>
  <rect x="624" y="96" width="8" height="16" fill="#0cf" rx="0"/>
  <rect x="632" y="96" width="8" height="16" fill="#0cf" rx="0"/>
  <rect x="664" y="96" width="8" height="16" fill="#0cf" rx="0"/>
  <rect x="672" y="96" width="8" height="16" fill="#0cf" rx="0"/>
  <rect x="680" y="96" width="8" height="16" fill="#0cf" rx="0"/>
  <rect x="616" y="112" width="8" height="16" fill="#0a8" rx="0"/>
  <rect x="624" y="112" width="8" height="16" fill="#0a8" rx="0"/>
  <rect x="632" y="112" width="8" height="16" fill="#0a8" rx="0"/>
  <rect x="664" y="112" width="8" height="16" fill="#0a8" rx="0"/>
  <rect x="672" y="112" width="8" height="16" fill="#0a8" rx="0"/>
  <rect x="680" y="112" width="8" height="16" fill="#0a8" rx="0"/>
  <text x="626" y="140" fill="#0cf">▀</text>
  <rect x="632" y="128" width="8" height="16" fill="url(#bottomGrad)" rx="0"/>
  <rect x="640" y="128" width="8" height="16" fill="url(#bottomGrad)" rx="0"/>
  <rect x="648" y="128" width="8" height="16" fill="url(#bottomGrad)" rx="0"/>
  <rect x="656" y="128" width="8" height="16" fill="url(#bottomGrad)" rx="0"/>
  <rect x="664" y="128" width="8" height="16" fill="url(#bottomGrad)" rx="0"/>
  <text x="674" y="140" fill="#0cf">▀</text>
</svg>
