<svg xmlns="http://www.w3.org/2000/svg" width="696" height="160" class="svgbob">
  <style>.svgbob line, .svgbob path, .svgbob circle, .svgbob rect, .svgbob polygon {
  stroke: black;
  stroke-width: 2;
  stroke-opacity: 1;
  fill-opacity: 1;
  stroke-linecap: round;
  stroke-linejoin: miter;
}

.svgbob text {
  white-space: pre;
  fill: black;
  font-family: Iosevka Fixed, monospace;
  font-size: 14px;
}

.svgbob rect.backdrop {
  stroke: none;
  fill: white;
}

.svgbob .broken {
  stroke-dasharray: 8;
}

.svgbob .filled {
  fill: black;
}

.svgbob .bg_filled {
  fill: white;
  stroke-width: 1;
}

.svgbob .nofill {
  fill: white;
}

.svgbob .end_marked_arrow {
  marker-end: url(#arrow);
}

.svgbob .start_marked_arrow {
  marker-start: url(#arrow);
}

.svgbob .end_marked_diamond {
  marker-end: url(#diamond);
}

.svgbob .start_marked_diamond {
  marker-start: url(#diamond);
}

.svgbob .end_marked_circle {
  marker-end: url(#circle);
}

.svgbob .start_marked_circle {
  marker-start: url(#circle);
}

.svgbob .end_marked_open_circle {
  marker-end: url(#open_circle);
}

.svgbob .start_marked_open_circle {
  marker-start: url(#open_circle);
}

.svgbob .end_marked_big_open_circle {
  marker-end: url(#big_open_circle);
}

.svgbob .start_marked_big_open_circle {
  marker-start: url(#big_open_circle);
}

</style>
  <defs>
    <marker id="arrow" viewBox="-2 -2 8 8" refX="4" refY="2" markerWidth="7" markerHeight="7" orient="auto-start-reverse">
      <polygon points="0,0 0,4 4,2 0,0"></polygon>
    </marker>
    <marker id="diamond" viewBox="-2 -2 8 8" refX="4" refY="2" markerWidth="7" markerHeight="7" orient="auto-start-reverse">
      <polygon points="0,2 2,0 4,2 2,4 0,2"></polygon>
    </marker>
    <marker id="circle" viewBox="0 0 8 8" refX="4" refY="4" markerWidth="7" markerHeight="7" orient="auto-start-reverse">
      <circle cx="4" cy="4" r="2" class="filled"></circle>
    </marker>
    <marker id="open_circle" viewBox="0 0 8 8" refX="4" refY="4" markerWidth="7" markerHeight="7" orient="auto-start-reverse">
      <circle cx="4" cy="4" r="2" class="bg_filled"></circle>
    </marker>
    <marker id="big_open_circle" viewBox="0 0 8 8" refX="4" refY="4" markerWidth="7" markerHeight="7" orient="auto-start-reverse">
      <circle cx="4" cy="4" r="3" class="bg_filled"></circle>
    </marker>
  </defs>
  <rect class="backdrop" x="0" y="0" width="696" height="160"></rect>
  <rect x="8" y="24" width="8" height="8" class="solid filled" rx="0"></rect>
  <rect x="16" y="16" width="8" height="16" class="solid filled" rx="0"></rect>
  <rect x="24" y="16" width="8" height="16" class="solid filled" rx="0"></rect>
  <rect x="32" y="16" width="8" height="16" class="solid filled" rx="0"></rect>
  <rect x="40" y="16" width="8" height="16" class="solid filled" rx="0"></rect>
  <rect x="48" y="16" width="8" height="16" class="solid filled" rx="0"></rect>
  <rect x="56" y="16" width="8" height="16" class="solid filled" rx="0"></rect>
  <rect x="64" y="24" width="8" height="8" class="solid filled" rx="0"></rect>
  <rect x="0" y="32" width="8" height="16" class="solid filled" rx="0"></rect>
  <rect x="8" y="32" width="8" height="16" class="solid filled" rx="0"></rect>
  <rect x="16" y="32" width="8" height="16" class="solid filled" rx="0"></rect>
  <rect x="56" y="32" width="8" height="16" class="solid filled" rx="0"></rect>
  <rect x="64" y="32" width="8" height="16" class="solid filled" rx="0"></rect>
  <rect x="72" y="32" width="8" height="16" class="solid filled" rx="0"></rect>
  <rect x="0" y="48" width="8" height="16" class="solid filled" rx="0"></rect>
  <rect x="8" y="48" width="8" height="16" class="solid filled" rx="0"></rect>
  <rect x="16" y="48" width="8" height="16" class="solid filled" rx="0"></rect>
  <rect x="56" y="48" width="8" height="16" class="solid filled" rx="0"></rect>
  <rect x="64" y="48" width="8" height="16" class="solid filled" rx="0"></rect>
  <rect x="72" y="48" width="8" height="16" class="solid filled" rx="0"></rect>
  <rect x="0" y="64" width="8" height="16" class="solid filled" rx="0"></rect>
  <rect x="8" y="64" width="8" height="16" class="solid filled" rx="0"></rect>
  <rect x="16" y="64" width="8" height="16" class="solid filled" rx="0"></rect>
  <rect x="56" y="64" width="8" height="16" class="solid filled" rx="0"></rect>
  <rect x="64" y="64" width="8" height="16" class="solid filled" rx="0"></rect>
  <rect x="72" y="64" width="8" height="16" class="solid filled" rx="0"></rect>
  <rect x="0" y="80" width="8" height="16" class="solid filled" rx="0"></rect>
  <rect x="8" y="80" width="8" height="16" class="solid filled" rx="0"></rect>
  <rect x="16" y="80" width="8" height="16" class="solid filled" rx="0"></rect>
  <rect x="56" y="80" width="8" height="16" class="solid filled" rx="0"></rect>
  <rect x="64" y="80" width="8" height="16" class="solid filled" rx="0"></rect>
  <rect x="72" y="80" width="8" height="16" class="solid filled" rx="0"></rect>
  <rect x="0" y="96" width="8" height="16" class="solid filled" rx="0"></rect>
  <rect x="8" y="96" width="8" height="16" class="solid filled" rx="0"></rect>
  <rect x="16" y="96" width="8" height="16" class="solid filled" rx="0"></rect>
  <rect x="56" y="96" width="8" height="16" class="solid filled" rx="0"></rect>
  <rect x="64" y="96" width="8" height="16" class="solid filled" rx="0"></rect>
  <rect x="72" y="96" width="8" height="16" class="solid filled" rx="0"></rect>
  <rect x="0" y="112" width="8" height="16" class="solid filled" rx="0"></rect>
  <rect x="8" y="112" width="8" height="16" class="solid filled" rx="0"></rect>
  <rect x="16" y="112" width="8" height="16" class="solid filled" rx="0"></rect>
  <rect x="56" y="112" width="8" height="16" class="solid filled" rx="0"></rect>
  <rect x="64" y="112" width="8" height="16" class="solid filled" rx="0"></rect>
  <rect x="72" y="112" width="8" height="16" class="solid filled" rx="0"></rect>
  <text x="10" y="140" >▀</text>
  <rect x="16" y="128" width="8" height="16" class="solid filled" rx="0"></rect>
  <rect x="24" y="128" width="8" height="16" class="solid filled" rx="0"></rect>
  <rect x="32" y="128" width="8" height="16" class="solid filled" rx="0"></rect>
  <rect x="40" y="128" width="8" height="16" class="solid filled" rx="0"></rect>
  <rect x="48" y="128" width="8" height="16" class="solid filled" rx="0"></rect>
  <rect x="56" y="128" width="8" height="16" class="solid filled" rx="0"></rect>
  <text x="66" y="140" >▀</text>
  <rect x="104" y="24" width="8" height="8" class="solid filled" rx="0"></rect>
  <rect x="112" y="24" width="8" height="8" class="solid filled" rx="0"></rect>
  <rect x="120" y="24" width="8" height="8" class="solid filled" rx="0"></rect>
  <rect x="128" y="24" width="8" height="8" class="solid filled" rx="0"></rect>
  <rect x="136" y="16" width="8" height="16" class="solid filled" rx="0"></rect>
  <rect x="144" y="16" width="8" height="16" class="solid filled" rx="0"></rect>
  <rect x="152" y="16" width="8" height="16" class="solid filled" rx="0"></rect>
  <rect x="160" y="24" width="8" height="8" class="solid filled" rx="0"></rect>
  <rect x="168" y="24" width="8" height="8" class="solid filled" rx="0"></rect>
  <rect x="176" y="24" width="8" height="8" class="solid filled" rx="0"></rect>
  <rect x="184" y="24" width="8" height="8" class="solid filled" rx="0"></rect>
  <rect x="88" y="40" width="8" height="8" class="solid filled" rx="0"></rect>
  <rect x="96" y="32" width="8" height="16" class="solid filled" rx="0"></rect>
  <rect x="104" y="32" width="8" height="16" class="solid filled" rx="0"></rect>
  <rect x="136" y="32" width="8" height="16" class="solid filled" rx="0"></rect>
  <rect x="144" y="32" width="8" height="16" class="solid filled" rx="0"></rect>
  <rect x="152" y="32" width="8" height="16" class="solid filled" rx="0"></rect>
  <rect x="184" y="32" width="8" height="16" class="solid filled" rx="0"></rect>
  <rect x="192" y="32" width="8" height="16" class="solid filled" rx="0"></rect>
  <rect x="200" y="40" width="8" height="8" class="solid filled" rx="0"></rect>
  <rect x="88" y="48" width="8" height="16" class="solid filled" rx="0"></rect>
  <rect x="96" y="48" width="8" height="16" class="solid filled" rx="0"></rect>
  <rect x="104" y="48" width="8" height="16" class="solid filled" rx="0"></rect>
  <rect x="136" y="48" width="8" height="16" class="solid filled" rx="0"></rect>
  <rect x="144" y="48" width="8" height="16" class="solid filled" rx="0"></rect>
  <rect x="152" y="48" width="8" height="16" class="solid filled" rx="0"></rect>
  <rect x="184" y="48" width="8" height="16" class="solid filled" rx="0"></rect>
  <rect x="192" y="48" width="8" height="16" class="solid filled" rx="0"></rect>
  <rect x="200" y="48" width="8" height="16" class="solid filled" rx="0"></rect>
  <rect x="88" y="64" width="8" height="16" class="solid filled" rx="0"></rect>
  <rect x="96" y="64" width="8" height="16" class="solid filled" rx="0"></rect>
  <rect x="104" y="64" width="8" height="16" class="solid filled" rx="0"></rect>
  <rect x="136" y="64" width="8" height="16" class="solid filled" rx="0"></rect>
  <rect x="144" y="64" width="8" height="16" class="solid filled" rx="0"></rect>
  <rect x="152" y="64" width="8" height="16" class="solid filled" rx="0"></rect>
  <rect x="184" y="64" width="8" height="16" class="solid filled" rx="0"></rect>
  <rect x="192" y="64" width="8" height="16" class="solid filled" rx="0"></rect>
  <rect x="200" y="64" width="8" height="16" class="solid filled" rx="0"></rect>
  <rect x="88" y="80" width="8" height="16" class="solid filled" rx="0"></rect>
  <rect x="96" y="80" width="8" height="16" class="solid filled" rx="0"></rect>
  <rect x="104" y="80" width="8" height="16" class="solid filled" rx="0"></rect>
  <rect x="136" y="80" width="8" height="16" class="solid filled" rx="0"></rect>
  <rect x="144" y="80" width="8" height="16" class="solid filled" rx="0"></rect>
  <rect x="152" y="80" width="8" height="16" class="solid filled" rx="0"></rect>
  <rect x="184" y="80" width="8" height="16" class="solid filled" rx="0"></rect>
  <rect x="192" y="80" width="8" height="16" class="solid filled" rx="0"></rect>
  <rect x="200" y="80" width="8" height="16" class="solid filled" rx="0"></rect>
  <rect x="88" y="96" width="8" height="16" class="solid filled" rx="0"></rect>
  <rect x="96" y="96" width="8" height="16" class="solid filled" rx="0"></rect>
  <rect x="104" y="96" width="8" height="16" class="solid filled" rx="0"></rect>
  <rect x="136" y="96" width="8" height="16" class="solid filled" rx="0"></rect>
  <rect x="144" y="96" width="8" height="16" class="solid filled" rx="0"></rect>
  <rect x="152" y="96" width="8" height="16" class="solid filled" rx="0"></rect>
  <rect x="184" y="96" width="8" height="16" class="solid filled" rx="0"></rect>
  <rect x="192" y="96" width="8" height="16" class="solid filled" rx="0"></rect>
  <rect x="200" y="96" width="8" height="16" class="solid filled" rx="0"></rect>
  <rect x="88" y="112" width="8" height="16" class="solid filled" rx="0"></rect>
  <rect x="96" y="112" width="8" height="16" class="solid filled" rx="0"></rect>
  <rect x="104" y="112" width="8" height="16" class="solid filled" rx="0"></rect>
  <rect x="136" y="112" width="8" height="16" class="solid filled" rx="0"></rect>
  <rect x="144" y="112" width="8" height="16" class="solid filled" rx="0"></rect>
  <rect x="152" y="112" width="8" height="16" class="solid filled" rx="0"></rect>
  <rect x="184" y="112" width="8" height="16" class="solid filled" rx="0"></rect>
  <rect x="192" y="112" width="8" height="16" class="solid filled" rx="0"></rect>
  <rect x="200" y="112" width="8" height="16" class="solid filled" rx="0"></rect>
  <text x="98" y="140" >▀</text>
  <rect x="104" y="128" width="8" height="16" class="solid filled" rx="0"></rect>
  <rect x="136" y="128" width="8" height="16" class="solid filled" rx="0"></rect>
  <rect x="144" y="128" width="8" height="16" class="solid filled" rx="0"></rect>
  <rect x="152" y="128" width="8" height="16" class="solid filled" rx="0"></rect>
  <rect x="184" y="128" width="8" height="16" class="solid filled" rx="0"></rect>
  <text x="194" y="140" >▀</text>
  <rect x="224" y="24" width="8" height="8" class="solid filled" rx="0"></rect>
  <rect x="232" y="16" width="8" height="16" class="solid filled" rx="0"></rect>
  <rect x="240" y="16" width="8" height="16" class="solid filled" rx="0"></rect>
  <rect x="248" y="16" width="8" height="16" class="solid filled" rx="0"></rect>
  <rect x="256" y="16" width="8" height="16" class="solid filled" rx="0"></rect>
  <rect x="264" y="16" width="8" height="16" class="solid filled" rx="0"></rect>
  <rect x="272" y="16" width="8" height="16" class="solid filled" rx="0"></rect>
  <rect x="280" y="16" width="8" height="16" class="solid filled" rx="0"></rect>
  <rect x="288" y="16" width="8" height="16" class="solid filled" rx="0"></rect>
  <rect x="216" y="32" width="8" height="16" class="solid filled" rx="0"></rect>
  <rect x="224" y="32" width="8" height="16" class="solid filled" rx="0"></rect>
  <rect x="232" y="32" width="8" height="16" class="solid filled" rx="0"></rect>
  <rect x="272" y="32" width="8" height="16" class="solid filled" rx="0"></rect>
  <rect x="280" y="32" width="8" height="16" class="solid filled" rx="0"></rect>
  <rect x="288" y="32" width="8" height="16" class="solid filled" rx="0"></rect>
  <rect x="216" y="48" width="8" height="16" class="solid filled" rx="0"></rect>
  <rect x="224" y="48" width="8" height="16" class="solid filled" rx="0"></rect>
  <rect x="232" y="48" width="8" height="16" class="solid filled" rx="0"></rect>
  <rect x="272" y="48" width="8" height="16" class="solid filled" rx="0"></rect>
  <text x="282" y="60" >▀</text>
  <rect x="216" y="64" width="8" height="16" class="solid filled" rx="0"></rect>
  <rect x="224" y="64" width="8" height="16" class="solid filled" rx="0"></rect>
  <rect x="232" y="64" width="8" height="16" class="solid filled" rx="0"></rect>
  <rect x="216" y="80" width="8" height="16" class="solid filled" rx="0"></rect>
  <rect x="224" y="80" width="8" height="16" class="solid filled" rx="0"></rect>
  <rect x="232" y="80" width="8" height="16" class="solid filled" rx="0"></rect>
  <rect x="216" y="96" width="8" height="16" class="solid filled" rx="0"></rect>
  <rect x="224" y="96" width="8" height="16" class="solid filled" rx="0"></rect>
  <rect x="232" y="96" width="8" height="16" class="solid filled" rx="0"></rect>
  <rect x="272" y="96" width="8" height="16" class="solid filled" rx="0"></rect>
  <rect x="280" y="104" width="8" height="8" class="solid filled" rx="0"></rect>
  <rect x="216" y="112" width="8" height="16" class="solid filled" rx="0"></rect>
  <rect x="224" y="112" width="8" height="16" class="solid filled" rx="0"></rect>
  <rect x="232" y="112" width="8" height="16" class="solid filled" rx="0"></rect>
  <rect x="272" y="112" width="8" height="16" class="solid filled" rx="0"></rect>
  <rect x="280" y="112" width="8" height="16" class="solid filled" rx="0"></rect>
  <rect x="288" y="112" width="8" height="16" class="solid filled" rx="0"></rect>
  <rect x="216" y="128" width="8" height="16" class="solid filled" rx="0"></rect>
  <rect x="224" y="128" width="8" height="16" class="solid filled" rx="0"></rect>
  <rect x="232" y="128" width="8" height="16" class="solid filled" rx="0"></rect>
  <rect x="240" y="128" width="8" height="16" class="solid filled" rx="0"></rect>
  <rect x="248" y="128" width="8" height="16" class="solid filled" rx="0"></rect>
  <rect x="256" y="128" width="8" height="16" class="solid filled" rx="0"></rect>
  <rect x="264" y="128" width="8" height="16" class="solid filled" rx="0"></rect>
  <rect x="272" y="128" width="8" height="16" class="solid filled" rx="0"></rect>
  <text x="282" y="140" >▀</text>
  <rect x="328" y="24" width="8" height="8" class="solid filled" rx="0"></rect>
  <rect x="336" y="16" width="8" height="16" class="solid filled" rx="0"></rect>
  <rect x="344" y="16" width="8" height="16" class="solid filled" rx="0"></rect>
  <rect x="352" y="16" width="8" height="16" class="solid filled" rx="0"></rect>
  <rect x="360" y="16" width="8" height="16" class="solid filled" rx="0"></rect>
  <rect x="368" y="16" width="8" height="16" class="solid filled" rx="0"></rect>
  <rect x="376" y="16" width="8" height="16" class="solid filled" rx="0"></rect>
  <rect x="384" y="16" width="8" height="16" class="solid filled" rx="0"></rect>
  <rect x="392" y="16" width="8" height="16" class="solid filled" rx="0"></rect>
  <rect x="320" y="32" width="8" height="16" class="solid filled" rx="0"></rect>
  <rect x="328" y="32" width="8" height="16" class="solid filled" rx="0"></rect>
  <rect x="336" y="32" width="8" height="16" class="solid filled" rx="0"></rect>
  <rect x="376" y="32" width="8" height="16" class="solid filled" rx="0"></rect>
  <rect x="384" y="32" width="8" height="16" class="solid filled" rx="0"></rect>
  <rect x="392" y="32" width="8" height="16" class="solid filled" rx="0"></rect>
  <rect x="320" y="48" width="8" height="16" class="solid filled" rx="0"></rect>
  <rect x="328" y="48" width="8" height="16" class="solid filled" rx="0"></rect>
  <rect x="336" y="48" width="8" height="16" class="solid filled" rx="0"></rect>
  <rect x="376" y="48" width="8" height="16" class="solid filled" rx="0"></rect>
  <rect x="384" y="48" width="8" height="16" class="solid filled" rx="0"></rect>
  <rect x="392" y="48" width="8" height="16" class="solid filled" rx="0"></rect>
  <rect x="320" y="64" width="8" height="16" class="solid filled" rx="0"></rect>
  <rect x="328" y="64" width="8" height="16" class="solid filled" rx="0"></rect>
  <rect x="336" y="64" width="8" height="16" class="solid filled" rx="0"></rect>
  <rect x="376" y="64" width="8" height="16" class="solid filled" rx="0"></rect>
  <rect x="384" y="64" width="8" height="16" class="solid filled" rx="0"></rect>
  <rect x="392" y="64" width="8" height="16" class="solid filled" rx="0"></rect>
  <text x="306" y="92" >▀</text>
  <rect x="312" y="80" width="8" height="16" class="solid filled" rx="0"></rect>
  <rect x="320" y="80" width="8" height="16" class="solid filled" rx="0"></rect>
  <rect x="328" y="80" width="8" height="16" class="solid filled" rx="0"></rect>
  <rect x="336" y="80" width="8" height="16" class="solid filled" rx="0"></rect>
  <rect x="344" y="80" width="8" height="16" class="solid filled" rx="0"></rect>
  <rect x="352" y="80" width="8" height="16" class="solid filled" rx="0"></rect>
  <rect x="360" y="80" width="8" height="16" class="solid filled" rx="0"></rect>
  <rect x="368" y="80" width="8" height="16" class="solid filled" rx="0"></rect>
  <rect x="376" y="80" width="8" height="16" class="solid filled" rx="0"></rect>
  <rect x="384" y="80" width="8" height="16" class="solid filled" rx="0"></rect>
  <rect x="392" y="80" width="8" height="16" class="solid filled" rx="0"></rect>
  <rect x="320" y="96" width="8" height="16" class="solid filled" rx="0"></rect>
  <rect x="328" y="96" width="8" height="16" class="solid filled" rx="0"></rect>
  <rect x="336" y="96" width="8" height="16" class="solid filled" rx="0"></rect>
  <rect x="376" y="96" width="8" height="16" class="solid filled" rx="0"></rect>
  <rect x="384" y="96" width="8" height="16" class="solid filled" rx="0"></rect>
  <rect x="392" y="96" width="8" height="16" class="solid filled" rx="0"></rect>
  <rect x="320" y="112" width="8" height="16" class="solid filled" rx="0"></rect>
  <rect x="328" y="112" width="8" height="16" class="solid filled" rx="0"></rect>
  <rect x="336" y="112" width="8" height="16" class="solid filled" rx="0"></rect>
  <rect x="376" y="112" width="8" height="16" class="solid filled" rx="0"></rect>
  <rect x="384" y="112" width="8" height="16" class="solid filled" rx="0"></rect>
  <rect x="392" y="112" width="8" height="16" class="solid filled" rx="0"></rect>
  <rect x="320" y="128" width="8" height="16" class="solid filled" rx="0"></rect>
  <rect x="328" y="128" width="8" height="16" class="solid filled" rx="0"></rect>
  <rect x="336" y="128" width="8" height="16" class="solid filled" rx="0"></rect>
  <rect x="376" y="128" width="8" height="16" class="solid filled" rx="0"></rect>
  <text x="386" y="140" >▀</text>
  <rect x="416" y="24" width="8" height="8" class="solid filled" rx="0"></rect>
  <rect x="424" y="16" width="8" height="16" class="solid filled" rx="0"></rect>
  <rect x="432" y="16" width="8" height="16" class="solid filled" rx="0"></rect>
  <rect x="440" y="16" width="8" height="16" class="solid filled" rx="0"></rect>
  <rect x="448" y="16" width="8" height="16" class="solid filled" rx="0"></rect>
  <rect x="456" y="16" width="8" height="16" class="solid filled" rx="0"></rect>
  <rect x="464" y="16" width="8" height="16" class="solid filled" rx="0"></rect>
  <rect x="472" y="16" width="8" height="16" class="solid filled" rx="0"></rect>
  <rect x="480" y="16" width="8" height="16" class="solid filled" rx="0"></rect>
  <rect x="408" y="32" width="8" height="16" class="solid filled" rx="0"></rect>
  <rect x="416" y="32" width="8" height="16" class="solid filled" rx="0"></rect>
  <rect x="424" y="32" width="8" height="16" class="solid filled" rx="0"></rect>
  <rect x="464" y="32" width="8" height="16" class="solid filled" rx="0"></rect>
  <rect x="472" y="32" width="8" height="16" class="solid filled" rx="0"></rect>
  <rect x="480" y="32" width="8" height="16" class="solid filled" rx="0"></rect>
  <rect x="408" y="48" width="8" height="16" class="solid filled" rx="0"></rect>
  <rect x="416" y="48" width="8" height="16" class="solid filled" rx="0"></rect>
  <rect x="424" y="48" width="8" height="16" class="solid filled" rx="0"></rect>
  <rect x="464" y="48" width="8" height="16" class="solid filled" rx="0"></rect>
  <text x="474" y="60" >▀</text>
  <rect x="408" y="64" width="8" height="16" class="solid filled" rx="0"></rect>
  <rect x="416" y="64" width="8" height="16" class="solid filled" rx="0"></rect>
  <rect x="424" y="64" width="8" height="16" class="solid filled" rx="0"></rect>
  <rect x="408" y="80" width="8" height="16" class="solid filled" rx="0"></rect>
  <rect x="416" y="80" width="8" height="16" class="solid filled" rx="0"></rect>
  <rect x="424" y="80" width="8" height="16" class="solid filled" rx="0"></rect>
  <rect x="408" y="96" width="8" height="16" class="solid filled" rx="0"></rect>
  <rect x="416" y="96" width="8" height="16" class="solid filled" rx="0"></rect>
  <rect x="424" y="96" width="8" height="16" class="solid filled" rx="0"></rect>
  <rect x="464" y="96" width="8" height="16" class="solid filled" rx="0"></rect>
  <rect x="472" y="104" width="8" height="8" class="solid filled" rx="0"></rect>
  <rect x="408" y="112" width="8" height="16" class="solid filled" rx="0"></rect>
  <rect x="416" y="112" width="8" height="16" class="solid filled" rx="0"></rect>
  <rect x="424" y="112" width="8" height="16" class="solid filled" rx="0"></rect>
  <rect x="464" y="112" width="8" height="16" class="solid filled" rx="0"></rect>
  <rect x="472" y="112" width="8" height="16" class="solid filled" rx="0"></rect>
  <rect x="480" y="112" width="8" height="16" class="solid filled" rx="0"></rect>
  <rect x="408" y="128" width="8" height="16" class="solid filled" rx="0"></rect>
  <rect x="416" y="128" width="8" height="16" class="solid filled" rx="0"></rect>
  <rect x="424" y="128" width="8" height="16" class="solid filled" rx="0"></rect>
  <rect x="432" y="128" width="8" height="16" class="solid filled" rx="0"></rect>
  <rect x="440" y="128" width="8" height="16" class="solid filled" rx="0"></rect>
  <rect x="448" y="128" width="8" height="16" class="solid filled" rx="0"></rect>
  <rect x="456" y="128" width="8" height="16" class="solid filled" rx="0"></rect>
  <rect x="464" y="128" width="8" height="16" class="solid filled" rx="0"></rect>
  <text x="474" y="140" >▀</text>
  <rect x="520" y="24" width="8" height="8" class="solid filled" rx="0"></rect>
  <rect x="528" y="16" width="8" height="16" class="solid filled" rx="0"></rect>
  <rect x="568" y="16" width="8" height="16" class="solid filled" rx="0"></rect>
  <rect x="576" y="24" width="8" height="8" class="solid filled" rx="0"></rect>
  <rect x="512" y="32" width="8" height="16" class="solid filled" rx="0"></rect>
  <rect x="520" y="32" width="8" height="16" class="solid filled" rx="0"></rect>
  <rect x="528" y="32" width="8" height="16" class="solid filled" rx="0"></rect>
  <rect x="568" y="32" width="8" height="16" class="solid filled" rx="0"></rect>
  <rect x="576" y="32" width="8" height="16" class="solid filled" rx="0"></rect>
  <rect x="584" y="32" width="8" height="16" class="solid filled" rx="0"></rect>
  <rect x="512" y="48" width="8" height="16" class="solid filled" rx="0"></rect>
  <rect x="520" y="48" width="8" height="16" class="solid filled" rx="0"></rect>
  <rect x="528" y="48" width="8" height="16" class="solid filled" rx="0"></rect>
  <rect x="568" y="48" width="8" height="16" class="solid filled" rx="0"></rect>
  <rect x="576" y="48" width="8" height="16" class="solid filled" rx="0"></rect>
  <rect x="584" y="48" width="8" height="16" class="solid filled" rx="0"></rect>
  <rect x="504" y="72" width="8" height="8" class="solid filled" rx="0"></rect>
  <rect x="512" y="64" width="8" height="16" class="solid filled" rx="0"></rect>
  <rect x="520" y="64" width="8" height="16" class="solid filled" rx="0"></rect>
  <rect x="528" y="64" width="8" height="16" class="solid filled" rx="0"></rect>
  <rect x="536" y="72" width="8" height="8" class="solid filled" rx="0"></rect>
  <rect x="544" y="72" width="8" height="8" class="solid filled" rx="0"></rect>
  <rect x="552" y="72" width="8" height="8" class="solid filled" rx="0"></rect>
  <rect x="560" y="72" width="8" height="8" class="solid filled" rx="0"></rect>
  <rect x="568" y="64" width="8" height="16" class="solid filled" rx="0"></rect>
  <rect x="576" y="64" width="8" height="16" class="solid filled" rx="0"></rect>
  <rect x="584" y="64" width="8" height="16" class="solid filled" rx="0"></rect>
  <rect x="592" y="72" width="8" height="8" class="solid filled" rx="0"></rect>
  <rect x="600" y="72" width="8" height="8" class="solid filled" rx="0"></rect>
  <rect x="512" y="80" width="8" height="16" class="solid filled" rx="0"></rect>
  <rect x="520" y="80" width="8" height="16" class="solid filled" rx="0"></rect>
  <rect x="528" y="80" width="8" height="16" class="solid filled" rx="0"></rect>
  <rect x="568" y="80" width="8" height="16" class="solid filled" rx="0"></rect>
  <rect x="576" y="80" width="8" height="16" class="solid filled" rx="0"></rect>
  <rect x="584" y="80" width="8" height="16" class="solid filled" rx="0"></rect>
  <text x="594" y="92" >▀</text>
  <rect x="512" y="96" width="8" height="16" class="solid filled" rx="0"></rect>
  <rect x="520" y="96" width="8" height="16" class="solid filled" rx="0"></rect>
  <rect x="528" y="96" width="8" height="16" class="solid filled" rx="0"></rect>
  <rect x="568" y="96" width="8" height="16" class="solid filled" rx="0"></rect>
  <rect x="576" y="96" width="8" height="16" class="solid filled" rx="0"></rect>
  <rect x="584" y="96" width="8" height="16" class="solid filled" rx="0"></rect>
  <rect x="512" y="112" width="8" height="16" class="solid filled" rx="0"></rect>
  <rect x="520" y="112" width="8" height="16" class="solid filled" rx="0"></rect>
  <rect x="528" y="112" width="8" height="16" class="solid filled" rx="0"></rect>
  <rect x="568" y="112" width="8" height="16" class="solid filled" rx="0"></rect>
  <rect x="576" y="112" width="8" height="16" class="solid filled" rx="0"></rect>
  <rect x="584" y="112" width="8" height="16" class="solid filled" rx="0"></rect>
  <rect x="512" y="128" width="8" height="16" class="solid filled" rx="0"></rect>
  <rect x="520" y="128" width="8" height="16" class="solid filled" rx="0"></rect>
  <rect x="528" y="128" width="8" height="16" class="solid filled" rx="0"></rect>
  <rect x="568" y="128" width="8" height="16" class="solid filled" rx="0"></rect>
  <text x="578" y="140" >▀</text>
  <rect x="616" y="24" width="8" height="8" class="solid filled" rx="0"></rect>
  <rect x="624" y="16" width="8" height="16" class="solid filled" rx="0"></rect>
  <rect x="632" y="16" width="8" height="16" class="solid filled" rx="0"></rect>
  <rect x="664" y="24" width="8" height="8" class="solid filled" rx="0"></rect>
  <rect x="616" y="32" width="8" height="16" class="solid filled" rx="0"></rect>
  <rect x="624" y="32" width="8" height="16" class="solid filled" rx="0"></rect>
  <rect x="632" y="32" width="8" height="16" class="solid filled" rx="0"></rect>
  <rect x="664" y="32" width="8" height="16" class="solid filled" rx="0"></rect>
  <rect x="672" y="32" width="8" height="16" class="solid filled" rx="0"></rect>
  <rect x="680" y="40" width="8" height="8" class="solid filled" rx="0"></rect>
  <rect x="616" y="48" width="8" height="16" class="solid filled" rx="0"></rect>
  <rect x="624" y="48" width="8" height="16" class="solid filled" rx="0"></rect>
  <rect x="632" y="48" width="8" height="16" class="solid filled" rx="0"></rect>
  <rect x="640" y="56" width="8" height="8" class="solid filled" rx="0"></rect>
  <rect x="648" y="56" width="8" height="8" class="solid filled" rx="0"></rect>
  <rect x="656" y="56" width="8" height="8" class="solid filled" rx="0"></rect>
  <rect x="664" y="48" width="8" height="16" class="solid filled" rx="0"></rect>
  <rect x="672" y="48" width="8" height="16" class="solid filled" rx="0"></rect>
  <rect x="680" y="48" width="8" height="16" class="solid filled" rx="0"></rect>
  <rect x="664" y="64" width="8" height="16" class="solid filled" rx="0"></rect>
  <rect x="672" y="64" width="8" height="16" class="solid filled" rx="0"></rect>
  <rect x="680" y="64" width="8" height="16" class="solid filled" rx="0"></rect>
  <rect x="616" y="88" width="8" height="8" class="solid filled" rx="0"></rect>
  <rect x="624" y="80" width="8" height="16" class="solid filled" rx="0"></rect>
  <rect x="632" y="80" width="8" height="16" class="solid filled" rx="0"></rect>
  <rect x="664" y="80" width="8" height="16" class="solid filled" rx="0"></rect>
  <rect x="672" y="80" width="8" height="16" class="solid filled" rx="0"></rect>
  <rect x="680" y="80" width="8" height="16" class="solid filled" rx="0"></rect>
  <rect x="616" y="96" width="8" height="16" class="solid filled" rx="0"></rect>
  <rect x="624" y="96" width="8" height="16" class="solid filled" rx="0"></rect>
  <rect x="632" y="96" width="8" height="16" class="solid filled" rx="0"></rect>
  <rect x="664" y="96" width="8" height="16" class="solid filled" rx="0"></rect>
  <rect x="672" y="96" width="8" height="16" class="solid filled" rx="0"></rect>
  <rect x="680" y="96" width="8" height="16" class="solid filled" rx="0"></rect>
  <rect x="616" y="112" width="8" height="16" class="solid filled" rx="0"></rect>
  <rect x="624" y="112" width="8" height="16" class="solid filled" rx="0"></rect>
  <rect x="632" y="112" width="8" height="16" class="solid filled" rx="0"></rect>
  <rect x="664" y="112" width="8" height="16" class="solid filled" rx="0"></rect>
  <rect x="672" y="112" width="8" height="16" class="solid filled" rx="0"></rect>
  <rect x="680" y="112" width="8" height="16" class="solid filled" rx="0"></rect>
  <text x="626" y="140" >▀</text>
  <rect x="632" y="128" width="8" height="16" class="solid filled" rx="0"></rect>
  <rect x="640" y="128" width="8" height="16" class="solid filled" rx="0"></rect>
  <rect x="648" y="128" width="8" height="16" class="solid filled" rx="0"></rect>
  <rect x="656" y="128" width="8" height="16" class="solid filled" rx="0"></rect>
  <rect x="664" y="128" width="8" height="16" class="solid filled" rx="0"></rect>
  <text x="674" y="140" >▀</text>
  <g>
    <text x="114" y="44">▀</text>
    <text x="122" y="44">▀</text>
    <text x="130" y="44">▀</text>
  </g>
  <g>
    <text x="162" y="44">▀</text>
    <text x="170" y="44">▀</text>
    <text x="178" y="44">▀</text>
  </g>
  <g>
    <text x="498" y="92">▀</text>
    <text x="506" y="92">▀</text>
  </g>
  <g>
    <text x="538" y="92">▀▀</text>
    <text x="546" y="92">▀</text>
    <text x="554" y="92">▀</text>
  </g>
  <g>
    <text x="618" y="76">▀▀</text>
    <text x="626" y="76">▀▀</text>
    <text x="634" y="76">▀▀</text>
  </g>
</svg>
